<svg width="21" height="25" viewBox="0 0 21 25" fill="none" xmlns="http://www.w3.org/2000/svg">
<path d="M6.46628 8.88167C6.66449 8.82236 6.85039 8.71385 7.00737 8.5576L8.53082 7.03343C9.03719 6.52706 9.03719 5.70674 8.53082 5.20039L6.48878 3.15761C5.98241 2.65124 5.16137 2.65124 4.65502 3.15761L3.19308 4.61956C3.19235 4.621 3.19091 4.62245 3.18946 4.6239L2.2252 5.58744C1.92789 5.88475 1.79044 6.30792 1.87726 6.71953C2.51744 9.73453 4.00837 12.6049 6.34985 14.9466C8.69152 17.2882 11.5619 18.779 14.5769 19.4192C14.9885 19.506 15.4117 19.3685 15.709 19.0712L18.1388 16.6414C18.6452 16.135 18.6452 15.314 18.1388 14.8084L16.096 12.7656C15.5896 12.2592 14.7693 12.2592 14.263 12.7656L12.7388 14.2898C12.5826 14.446 12.4741 14.6319 12.4147 14.8301C11.1611 14.2218 9.98641 13.3971 8.94252 12.354C7.89941 11.3109 7.07462 10.1354 6.46628 8.88167Z" fill="#78B2C5"/>
</svg>
