<svg width="52" height="65" viewBox="0 0 52 65" fill="none" xmlns="http://www.w3.org/2000/svg">
<path fill-rule="evenodd" clip-rule="evenodd" d="M2.49903 4.15174H4.26343V5.71711C4.26343 7.35147 5.59556 8.68412 7.23043 8.68412C8.86478 8.68412 10.1974 7.35199 10.1974 5.71711V4.15174H12.1361V5.71711C12.1361 7.35147 13.4682 8.68412 15.1031 8.68412C16.7375 8.68412 18.0701 7.35199 18.0701 5.71711V4.15174H20.0083V5.71711C20.0083 7.35147 21.3404 8.68412 22.9753 8.68412C24.6096 8.68412 25.9423 7.35199 25.9423 5.71711V4.15174H27.881V5.71711C27.881 7.35147 29.2131 8.68412 30.848 8.68412C32.4823 8.68412 33.815 7.35199 33.815 5.71711V4.15174H35.5788C36.3702 4.15174 37.0179 4.79937 37.0179 5.59074V9.35281H1.06055V5.59074C1.06055 4.79937 1.70765 4.15174 2.49903 4.15174ZM42.2642 21.8463C41.9362 21.6057 41.8651 21.1445 42.1057 20.8164C42.3463 20.4884 42.8076 20.4173 43.1356 20.658C47.2694 23.6908 49.7057 28.4838 49.7057 33.6117C49.7057 35.3377 49.4287 37.0578 48.8816 38.6948L49.5235 38.4315C49.8994 38.2773 50.3296 38.4568 50.4844 38.8328C50.6387 39.2087 50.4591 39.6389 50.0832 39.7937L47.8402 40.7146C47.4642 40.8689 47.034 40.6893 46.8792 40.3134L45.9583 38.0703C45.8041 37.6944 45.9831 37.2642 46.3596 37.1094C46.7355 36.9552 47.1657 37.1347 47.3205 37.5106L47.5427 38.0514C48.0008 36.614 48.2287 35.1212 48.2287 33.6122C48.2287 28.9487 46.0236 24.6043 42.2642 21.8463ZM38.4679 17.7357C38.3136 17.3598 38.4927 16.9296 38.8691 16.7753C39.2451 16.621 39.6753 16.8006 39.8301 17.1765L40.751 19.4201C40.9052 19.796 40.7257 20.2262 40.3497 20.3805L38.1067 21.3014C37.7308 21.4557 37.3006 21.2761 37.1458 20.9002C36.9915 20.5242 37.1711 20.094 37.547 19.9398L38.0883 19.7176C36.6509 19.2595 35.1576 19.0315 33.6491 19.0315C28.9862 19.0315 24.6423 21.2371 21.8843 24.9966C21.6437 25.3246 21.1824 25.3957 20.8544 25.1551C20.5264 24.9144 20.4553 24.4532 20.6959 24.1252C23.7287 19.9914 28.5212 17.5541 33.6496 17.5541C35.3756 17.5541 37.0958 17.8305 38.7328 18.3776L38.4679 17.7357ZM17.7721 28.7913C17.3962 28.9456 16.966 28.766 16.8117 28.3901C16.6574 28.0141 16.837 27.584 17.2129 27.4292L19.4559 26.5082C19.8319 26.354 20.2621 26.5335 20.4169 26.9095L21.3378 29.153C21.492 29.529 21.3125 29.9591 20.9366 30.1139C20.5606 30.2682 20.1304 30.0887 19.9756 29.7127L19.754 29.172C19.2959 30.6094 19.0674 32.1016 19.0674 33.6106C19.0674 38.2736 21.2725 42.6175 25.0324 45.3754C25.3605 45.6161 25.4315 46.0773 25.1909 46.4053C24.9503 46.7334 24.4891 46.8044 24.161 46.5638C20.0272 43.531 17.5899 38.7385 17.5899 33.6101C17.5899 31.8841 17.8669 30.164 18.4139 28.527L17.7721 28.7913ZM28.8282 49.4871C28.9825 49.8631 28.8029 50.2932 28.427 50.448C28.051 50.6023 27.6209 50.4228 27.4661 50.0468L26.5452 47.8033C26.3909 47.4273 26.5704 46.9972 26.9464 46.8424L29.1894 45.9215C29.5653 45.7672 29.9955 45.9467 30.1498 46.3227C30.3041 46.6986 30.1245 47.1288 29.7486 47.2836L29.2078 47.5053C30.6447 47.9633 32.138 48.1913 33.647 48.1913C38.31 48.1913 42.6544 45.9862 45.4123 42.2273C45.653 41.8993 46.1142 41.8282 46.4422 42.0688C46.7703 42.3094 46.8413 42.7707 46.6007 43.0987C43.5679 47.2325 38.7749 49.6688 33.647 49.6688C31.921 49.6688 30.2009 49.3918 28.5639 48.8448L28.8282 49.4871ZM33.6481 22.4103C27.4618 22.4103 22.4472 27.4249 22.4472 33.6117C22.4472 39.7979 27.4618 44.8126 33.6481 44.8126C39.8343 44.8126 44.8489 39.7979 44.8489 33.6117C44.8489 27.4249 39.8343 22.4103 33.6481 22.4103ZM32.9093 27.8256C32.9093 27.4176 33.24 27.0869 33.6481 27.0869C34.0561 27.0869 34.3868 27.4176 34.3868 27.8256V31.8678C35.0655 32.1558 35.5415 32.8277 35.5415 33.6112C35.5415 34.6568 34.6937 35.504 33.6486 35.504C33.3974 35.504 33.1573 35.4551 32.9378 35.3661L30.3504 37.9535C30.0619 38.242 29.5943 38.242 29.3063 37.9535C29.0177 37.6649 29.0177 37.1974 29.3063 36.9093L31.8937 34.322C31.8047 34.1024 31.7557 33.8628 31.7557 33.6112C31.7557 32.8277 32.2317 32.1553 32.9104 31.8678V27.8256H32.9093ZM33.6481 24.1083C28.4001 24.1083 24.1452 28.3632 24.1452 33.6112C24.1452 38.8591 28.4001 43.114 33.6481 43.114C38.896 43.114 43.1509 38.8591 43.1509 33.6112C43.1509 28.3632 38.896 24.1083 33.6481 24.1083ZM33.6481 25.5858C38.0809 25.5858 41.674 29.1788 41.674 33.6117C41.674 38.0445 38.0809 41.6376 33.6481 41.6376C29.2152 41.6376 25.6222 38.0445 25.6222 33.6117C25.6222 29.1788 29.2152 25.5858 33.6481 25.5858ZM7.22991 1.0968C6.41062 1.0968 5.74035 1.76708 5.74035 2.58636V5.71711C5.74035 6.5364 6.41062 7.20667 7.22991 7.20667C8.04919 7.20667 8.71946 6.5364 8.71946 5.71711V2.58636C8.71999 1.76708 8.04919 1.0968 7.22991 1.0968ZM30.8474 1.0968C30.0282 1.0968 29.3579 1.76708 29.3579 2.58636V5.71711C29.3579 6.5364 30.0282 7.20667 30.8474 7.20667C31.6667 7.20667 32.337 6.5364 32.337 5.71711V2.58636C32.337 1.76708 31.6667 1.0968 30.8474 1.0968ZM22.9748 1.0968C22.1555 1.0968 21.4852 1.76708 21.4852 2.58636V5.71711C21.4852 6.5364 22.1555 7.20667 22.9748 7.20667C23.794 7.20667 24.4643 6.5364 24.4643 5.71711V2.58636C24.4648 1.76708 23.794 1.0968 22.9748 1.0968ZM15.1026 1.0968C14.2833 1.0968 13.613 1.76708 13.613 2.58636V5.71711C13.613 6.5364 14.2833 7.20667 15.1026 7.20667C15.9219 7.20667 16.5921 6.5364 16.5921 5.71711V2.58636C16.5921 1.76708 15.9219 1.0968 15.1026 1.0968ZM1.06055 10.8297V37.3911C1.06055 38.1825 1.70818 38.8301 2.49956 38.8301H16.9054C16.381 37.1468 16.1135 35.3903 16.1135 33.6117C16.1135 32.4228 16.2341 31.2365 16.4732 30.0718C16.024 29.8391 15.6518 29.4537 15.4459 28.9524C14.9836 27.8272 15.5265 26.5261 16.6522 26.0639L18.8952 25.143C18.9736 25.1108 19.0532 25.0835 19.1327 25.0608C18.9921 24.4543 19.1069 23.7924 19.5039 23.2511C22.8142 18.7382 28.051 16.0766 33.6486 16.0766C34.7796 16.0766 35.9079 16.1856 37.0179 16.4015V10.8297H1.06055ZM5.51763 30.255C6.60439 30.255 7.48527 31.1359 7.48527 32.2227C7.48527 33.3095 6.60439 34.1903 5.51763 34.1903C4.43087 34.1903 3.54998 33.3095 3.54998 32.2227C3.54998 31.1359 4.43087 30.255 5.51763 30.255ZM5.51763 15.5543C6.60439 15.5543 7.48527 16.4352 7.48527 17.5219C7.48527 18.6087 6.60439 19.4896 5.51763 19.4896C4.43087 19.4896 3.54998 18.6087 3.54998 17.5219C3.54998 16.4352 4.43087 15.5543 5.51763 15.5543ZM19.0384 15.5543C17.9517 15.5543 17.0708 16.4352 17.0708 17.5219C17.0708 18.6087 17.9517 19.4896 19.0384 19.4896C20.1252 19.4896 21.0061 18.6087 21.0061 17.5219C21.0061 16.4352 20.1252 15.5543 19.0384 15.5543ZM12.2783 15.5543C13.365 15.5543 14.2459 16.4352 14.2459 17.5219C14.2459 18.6087 13.365 19.4896 12.2783 19.4896C11.1915 19.4896 10.3106 18.6087 10.3106 17.5219C10.3106 16.4352 11.1915 15.5543 12.2783 15.5543ZM5.51763 22.9047C6.60439 22.9047 7.48527 23.7856 7.48527 24.8723C7.48527 25.9591 6.60439 26.84 5.51763 26.84C4.43087 26.84 3.54998 25.9591 3.54998 24.8723C3.54998 23.7856 4.43087 22.9047 5.51763 22.9047ZM12.2783 22.9047C13.365 22.9047 14.2459 23.7856 14.2459 24.8723C14.2459 25.9591 13.365 26.84 12.2783 26.84C11.1915 26.84 10.3106 25.9591 10.3106 24.8723C10.3106 23.7856 11.1915 22.9047 12.2783 22.9047ZM12.2783 30.255C13.365 30.255 14.2459 31.1359 14.2459 32.2227C14.2459 33.3095 13.365 34.1903 12.2783 34.1903C11.1915 34.1903 10.3106 33.3095 10.3106 32.2227C10.3106 31.1359 11.1915 30.255 12.2783 30.255Z" fill="#78B2C5"/>
</svg>
