<svg width="56" height="69" viewBox="0 0 56 69" fill="none" xmlns="http://www.w3.org/2000/svg">
<path fill-rule="evenodd" clip-rule="evenodd" d="M35.3158 13.6945C33.3413 11.72 30.6133 10.4984 27.5999 10.4984C24.5866 10.4984 21.8586 11.72 19.8841 13.6945C17.9096 15.669 16.688 18.397 16.688 21.4104C16.688 24.4237 17.9096 27.1517 19.8841 29.1262C21.8586 31.1007 24.5866 32.3223 27.5999 32.3223C30.6133 32.3223 33.3413 31.1007 35.3158 29.1262C37.2903 27.1517 38.5119 24.4237 38.5119 21.4104C38.5119 18.397 37.2903 15.669 35.3158 13.6945ZM27.5999 8.89653C31.0555 8.89653 34.1842 10.2975 36.4485 12.5618C38.7128 14.8261 40.1138 17.9548 40.1138 21.4104C40.1138 24.8659 38.7128 27.9946 36.4485 30.2589C34.1842 32.5232 31.0555 33.9242 27.5999 33.9242C24.1444 33.9242 21.0157 32.5232 18.7514 30.2589C16.4871 27.9946 15.0861 24.8659 15.0861 21.4104C15.0861 17.9548 16.4871 14.8261 18.7514 12.5618C21.0157 10.2975 24.1444 8.89653 27.5999 8.89653ZM28.8469 19.6964C28.9678 19.9547 29.2096 20.1181 29.4729 20.1507V20.1535L32.3764 20.5183L30.2391 22.5226C30.0326 22.7169 29.9526 22.9951 30.0017 23.2546L30.5526 26.1327L27.9852 24.719C27.7335 24.5805 27.4393 24.5926 27.2064 24.724L24.6479 26.1327L25.1987 23.2551C25.2545 22.9648 25.1452 22.6811 24.9365 22.5L22.8235 20.5183L25.7276 20.1535C26.0356 20.1159 26.2812 19.9084 26.3817 19.6362L27.5999 17.0429L28.8469 19.6964ZM28.3231 14.8283L30.1038 18.6189L34.2626 19.1416C34.7014 19.1952 35.0138 19.5943 34.9603 20.0337C34.9344 20.2456 34.8278 20.4278 34.6755 20.5537L31.6549 23.3865L32.4432 27.5044C32.526 27.9383 32.2417 28.3573 31.8078 28.4401C31.6174 28.4765 31.4297 28.4423 31.2718 28.3551L27.5999 26.3336L23.9269 28.3556C23.54 28.5681 23.0537 28.4268 22.8412 28.0393C22.7479 27.8693 22.723 27.6805 22.7567 27.5044L23.545 23.3865L20.4869 20.5183C20.1656 20.2158 20.1502 19.7102 20.4527 19.3889C20.5857 19.2471 20.759 19.1648 20.9379 19.1433V19.1416L25.0966 18.6189L26.8774 14.8283C27.064 14.4292 27.5392 14.257 27.9383 14.4436C28.115 14.5258 28.2469 14.6649 28.3231 14.8283ZM29.4795 4.07315C30.1104 4.47998 30.7359 4.88294 31.4557 5.05185C32.1964 5.22573 32.9461 5.13244 33.6924 5.03915C34.4182 4.94863 35.1403 4.85865 35.5951 5.08166C36.0522 5.30577 36.417 5.92898 36.7802 6.54942C37.1573 7.19306 37.5332 7.83503 38.1089 8.29706C38.688 8.76184 39.4006 8.98981 40.1132 9.21724C40.79 9.43362 41.4678 9.65001 41.783 10.043C42.0971 10.4344 42.1628 11.1437 42.2285 11.8547C42.2975 12.5993 42.3665 13.3456 42.6971 14.0196C43.025 14.6876 43.561 15.1954 44.1003 15.706C44.6341 16.2116 45.1717 16.7211 45.2937 17.2411C45.4157 17.7616 45.1673 18.4649 44.9167 19.1759C44.6606 19.9017 44.4017 20.6342 44.4017 21.4098C44.4017 22.1854 44.6606 22.9179 44.9167 23.6437C45.1679 24.3547 45.4163 25.058 45.2937 25.5785C45.1717 26.099 44.6341 26.608 44.1003 27.1136C43.561 27.6242 43.025 28.1321 42.6971 28.8C42.3665 29.474 42.2975 30.2203 42.2285 30.9649C42.1628 31.6759 42.0965 32.3852 41.783 32.7766C41.4678 33.1696 40.7905 33.386 40.1132 33.6024C39.4006 33.8303 38.688 34.0578 38.1089 34.5226C37.5326 34.9851 37.1567 35.6271 36.7802 36.2702C36.417 36.8912 36.0522 37.5138 35.5951 37.738C35.1408 37.961 34.4188 37.871 33.6924 37.7805C32.9461 37.6877 32.1964 37.5939 31.4557 37.7678C30.7359 37.9367 30.1104 38.3396 29.4795 38.7465C28.8353 39.1616 28.1829 39.5822 27.6005 39.5822C27.0181 39.5822 26.3657 39.1616 25.7215 38.7465C25.0906 38.3396 24.4657 37.9367 23.7453 37.7678C23.0046 37.5939 22.2549 37.6872 21.5086 37.7805C20.7828 37.871 20.0607 37.961 19.6059 37.738C19.1488 37.5138 18.784 36.8906 18.4208 36.2702C18.0437 35.6266 17.6678 34.9846 17.0921 34.5226C16.513 34.0578 15.8004 33.8298 15.0878 33.6024C14.411 33.386 13.7332 33.1696 13.418 32.7766C13.1039 32.3852 13.0382 31.6759 12.9725 30.9649C12.9035 30.2203 12.8345 29.474 12.5039 28.8C12.176 28.1321 11.64 27.6242 11.1007 27.1136C10.5669 26.608 10.0293 26.0985 9.90727 25.5785C9.78528 25.058 10.0337 24.3547 10.2843 23.6437C10.5404 22.9179 10.7993 22.1854 10.7993 21.4098C10.7993 20.6342 10.5404 19.9017 10.2843 19.1759C10.0331 18.4649 9.78472 17.7616 9.90727 17.2411C10.0293 16.7206 10.5669 16.2116 11.1007 15.706C11.64 15.1954 12.176 14.6876 12.5039 14.0196C12.8345 13.3456 12.9035 12.5993 12.9725 11.8547C13.0382 11.1437 13.1044 10.4344 13.418 10.043C13.7332 9.65001 14.4105 9.43362 15.0878 9.21724C15.8004 8.98926 16.513 8.76184 17.0921 8.29706C17.6684 7.83448 18.0443 7.1925 18.4208 6.54942C18.784 5.92842 19.1488 5.30577 19.6059 5.08166C20.0602 4.85865 20.7822 4.94863 21.5086 5.03915C22.2549 5.13189 23.0046 5.22573 23.7453 5.05185C24.4651 4.88294 25.0906 4.47998 25.7215 4.07315C26.3657 3.65805 27.0181 3.23743 27.6005 3.23743C28.1829 3.23743 28.8353 3.65805 29.4795 4.07315ZM29.2648 40.7381L33.3109 51.9624L37.3057 46.0787C37.4896 45.7811 37.855 45.6299 38.2072 45.7315L45.0702 47.722L40.5349 35.1425C39.989 35.3169 39.4503 35.4952 39.1102 35.7679C38.7586 36.0499 38.4583 36.5633 38.1569 37.0778C37.6728 37.9047 37.1871 38.7343 36.2956 39.1715C35.4052 39.6081 34.4547 39.4894 33.4981 39.3702C32.8898 39.2946 32.2787 39.2184 31.8183 39.3261C31.3662 39.432 30.8573 39.7605 30.3428 40.0917C29.9896 40.3191 29.6346 40.5482 29.2642 40.737L29.2648 40.7381ZM14.6655 35.143L10.1303 47.7225L16.9933 45.732C17.3455 45.6299 17.7109 45.7817 17.8947 46.0792L21.8895 51.963L25.9357 40.7386C25.5653 40.5498 25.2103 40.3208 24.8576 40.0933C24.3432 39.7616 23.8342 39.4337 23.3821 39.3277C22.9218 39.2195 22.3107 39.2957 21.7024 39.3719C20.7458 39.4911 19.7952 39.6098 18.9049 39.1732C18.0134 38.736 17.5276 37.9063 17.0435 37.0794C16.7421 36.565 16.4418 36.0521 16.0902 35.7695C15.7502 35.4963 15.2114 35.3185 14.6655 35.1441V35.143Z" fill="#78B2C5"/>
</svg>
