<svg width="33" height="41" viewBox="0 0 33 41" fill="none" xmlns="http://www.w3.org/2000/svg">
<path d="M20.3565 23.0164L25.0151 15.7645C27.0703 12.5665 27.2086 8.66638 25.3841 5.33C23.5596 1.99363 20.2028 0 16.4 0C12.5972 0 9.24037 1.99363 7.41587 5.33C5.59137 8.66126 5.72975 12.5614 7.78487 15.7645L12.4384 23.0113C8.35887 23.7339 5.7605 25.5481 5.7605 27.7365C5.76562 30.668 10.2346 32.8 16.4 32.8C22.5654 32.8 27.0344 30.668 27.0344 27.7365C27.0344 25.5379 24.4411 23.7288 20.3565 23.0164ZM20.8178 9.66063C20.8178 12.0899 18.8344 14.0681 16.4 14.0681C13.9656 14.0681 11.9822 12.0899 11.9822 9.66063C11.9822 7.22626 13.9656 5.24288 16.4 5.24288C18.8344 5.24288 20.8178 7.22113 20.8178 9.66063ZM15.6722 28.044C15.8311 28.2952 16.1028 28.4438 16.4 28.4438C16.7024 28.4438 16.974 28.2952 17.1277 28.0492L18.8805 25.3175C22.6525 25.7634 24.5436 27.1061 24.5436 27.7365C24.5436 28.5053 21.771 30.3093 16.4 30.3093C11.029 30.3093 8.25637 28.5053 8.25637 27.7365C8.25637 27.1061 10.1475 25.7685 13.9195 25.3175L15.6722 28.044Z" fill="#78B2C5"/>
</svg>
