<svg width="55" height="68" viewBox="0 0 55 68" fill="none" xmlns="http://www.w3.org/2000/svg">
<path d="M52.9259 30.0205C52.0992 28.8669 50.3802 28.2194 48.5488 29.5071L47.9526 29.8448C47.5713 29.4505 47.0814 29.1784 46.5451 29.0632C46.0825 28.9767 45.6067 28.9902 45.1497 29.1028C44.6927 29.2154 44.2651 29.4244 43.8956 29.7159L35.3377 34.5134C35.1009 34.4712 34.8488 34.4284 34.5755 34.3822C31.6502 33.9588 28.788 33.1772 26.0535 32.055C19.905 29.4397 17.2674 30.3355 14.683 31.6745C13.2555 32.3988 11.8826 33.226 10.5752 34.1494C10.2986 33.7008 9.86142 33.3744 9.3527 33.2366C8.84397 33.0988 8.30186 33.16 7.83665 33.4077L6.98086 33.8642C6.69617 33.4916 6.28844 33.2323 5.83036 33.1324C5.37228 33.0326 4.89361 33.0986 4.47967 33.3187L1.70007 34.8021C1.25791 35.053 0.925897 35.4606 0.769573 35.9444C0.613249 36.4281 0.643977 36.9529 0.85569 37.4151L7.18853 52.5147C7.28651 52.7476 7.43269 52.9573 7.61745 53.1297C7.80221 53.3022 8.02138 53.4336 8.26055 53.5154C8.52631 53.6097 8.80882 53.6476 9.09006 53.6267C9.3713 53.6058 9.64509 53.5265 9.89396 53.3938L14.0189 51.1922C14.4314 50.9713 14.7523 50.6112 14.9244 50.176C15.0966 49.7409 15.1089 49.2587 14.9591 48.8154L15.8149 48.3589C16.21 48.1471 16.5259 47.813 16.7154 47.4067C16.9048 47.0004 16.9576 46.5436 16.8658 46.1048C17.215 46.1082 17.5801 46.1179 17.9675 46.1345C20.8458 46.2845 23.6892 46.8355 26.4153 47.7713C27.788 48.2841 29.2289 48.5917 30.6913 48.6841C31.7077 48.6889 32.706 48.415 33.5776 47.8923C33.5988 47.8803 33.6187 47.8672 33.6381 47.8535L51.9834 34.6823C52.3588 34.4446 52.6823 34.1334 52.9343 33.7674C53.1862 33.4013 53.3615 32.9881 53.4496 32.5526C53.5377 32.117 53.5366 31.6682 53.4466 31.233C53.3566 30.7979 53.1795 30.3854 52.9259 30.0205ZM44.6658 31.007C44.6903 30.993 44.7141 30.9777 44.7371 30.9613C44.9418 30.7894 45.1803 30.6623 45.4372 30.5883C45.6941 30.5143 45.9637 30.495 46.2285 30.5317C46.3362 30.5558 46.4402 30.5941 46.5377 30.6458L38.0974 35.4268C37.8821 35.2884 37.6556 35.1683 37.4201 35.068L44.6658 31.007ZM13.5391 49.5827C13.5213 49.6421 13.492 49.6974 13.4528 49.7455C13.4137 49.7936 13.3654 49.8334 13.3108 49.8629L9.18537 52.0645C9.12088 52.098 9.05025 52.1181 8.97778 52.1235C8.90531 52.1288 8.83249 52.1195 8.76375 52.0959C8.72254 52.0837 8.6844 52.0629 8.65184 52.0349C8.61928 52.0069 8.59305 51.9722 8.57491 51.9333L2.24378 36.8332C2.17952 36.7163 2.16075 36.5798 2.19108 36.45C2.22142 36.3201 2.29871 36.206 2.40809 36.1297L5.18769 34.6464C5.25504 34.6109 5.33008 34.5924 5.40621 34.5927C5.49238 34.5924 5.57706 34.6152 5.65135 34.6589C5.72564 34.7026 5.78679 34.7654 5.82839 34.8409L13.5054 49.2222C13.5345 49.2771 13.5525 49.3372 13.5582 49.3991C13.564 49.461 13.5575 49.5234 13.5391 49.5827ZM51.1059 33.4608L32.7926 46.612C31.0183 47.6287 29.4505 47.1414 26.8625 46.337C24.0128 45.3592 21.0403 44.7852 18.0314 44.6317C17.3536 44.6026 16.7363 44.5929 16.1583 44.6026L11.2906 35.4816C12.5865 34.5543 13.9513 33.7275 15.3733 33.0084C17.3855 31.9655 19.4668 30.8866 25.4636 33.438C28.3058 34.6075 31.2812 35.4223 34.3227 35.8639C35.0758 35.9911 35.7257 36.1012 36.1661 36.2216C36.8142 36.399 37.8914 36.8064 37.8206 37.5418C37.751 38.2521 36.7749 39.0691 35.9214 39.1301C34.3814 39.1959 32.8386 39.1326 31.3092 38.9407C29.5961 38.7231 27.8663 38.6658 26.1425 38.7695C25.9455 38.7896 25.7643 38.8865 25.6383 39.0393C25.5123 39.1922 25.4517 39.3886 25.4696 39.5858C25.4876 39.7831 25.5827 39.9653 25.7342 40.0929C25.8857 40.2205 26.0815 40.2831 26.2789 40.2672C27.9097 40.1721 29.5459 40.2294 31.166 40.4383C32.3681 40.5524 33.601 40.6723 34.8362 40.6723C35.2356 40.6723 35.635 40.6597 36.0292 40.6312C37.6386 40.5171 39.1745 39.1404 39.3171 37.689C39.3535 37.3064 39.2894 36.9209 39.1311 36.5707L49.323 30.7953C49.3461 30.7826 49.3684 30.7685 49.3898 30.7531C50.4675 29.9823 51.2919 30.3212 51.7038 30.8963C51.841 31.1015 51.9345 31.3327 51.9787 31.5756C52.0229 31.8184 52.0168 32.0678 51.9607 32.3081C51.9047 32.5485 51.7999 32.7749 51.6529 32.9731C51.5058 33.1714 51.3197 33.3374 51.1059 33.4608ZM10.7064 48.2665C10.7517 48.3561 10.7787 48.4538 10.7857 48.554C10.7927 48.6541 10.7795 48.7547 10.747 48.8496C10.7145 48.9446 10.6633 49.0322 10.5965 49.107C10.5296 49.1819 10.4484 49.2427 10.3577 49.2857C10.267 49.3287 10.1686 49.3531 10.0683 49.3575C9.96801 49.3619 9.86786 49.3461 9.77374 49.3111C9.67963 49.2762 9.59347 49.2227 9.52035 49.154C9.44722 49.0852 9.38861 49.0024 9.34797 48.9106L8.27253 46.6479C8.228 46.5585 8.20175 46.461 8.19531 46.3613C8.18888 46.2616 8.20238 46.1616 8.23504 46.0671C8.2677 45.9727 8.31886 45.8857 8.38552 45.8112C8.45218 45.7368 8.53302 45.6764 8.6233 45.6335C8.71358 45.5907 8.8115 45.5663 8.91133 45.5617C9.01116 45.5571 9.11089 45.5725 9.20471 45.6069C9.29853 45.6414 9.38454 45.6941 9.45773 45.7622C9.53091 45.8302 9.5898 45.9122 9.63095 46.0032L10.7064 48.2665ZM8.41858 45.3129C8.23859 45.3985 8.03195 45.4092 7.84409 45.3426C7.65623 45.2759 7.50252 45.1374 7.41674 44.9575L7.11094 44.3133C7.06641 44.2239 7.04016 44.1264 7.03372 44.0267C7.02729 43.927 7.04079 43.827 7.07345 43.7325C7.10611 43.6381 7.15726 43.5511 7.22393 43.4767C7.29059 43.4022 7.37143 43.3418 7.46171 43.299C7.55199 43.2561 7.64991 43.2317 7.74974 43.2271C7.84956 43.2225 7.9493 43.2379 8.04312 43.2723C8.13694 43.3068 8.22295 43.3595 8.29614 43.4276C8.36932 43.4956 8.42821 43.5776 8.46936 43.6687L8.77516 44.3128C8.86037 44.4928 8.87068 44.6993 8.80383 44.8869C8.73697 45.0745 8.59843 45.2279 8.41858 45.3135V45.3129ZM31.4165 28.9388L31.6088 29.0113C31.7795 29.0751 31.9675 29.0751 32.1382 29.0113L32.3299 28.9388C36.5198 27.3636 41.735 25.4016 42.8846 19.6392C42.8944 19.5906 42.8994 19.5411 42.8995 19.4915V6.35626C42.8996 6.18097 42.8383 6.01117 42.7264 5.87625C42.6145 5.74133 42.459 5.64977 42.2867 5.61743C41.0492 5.38761 39.8902 4.8474 38.9184 4.04742C37.9466 3.24744 37.1937 2.21386 36.7304 1.04352C36.6745 0.903955 36.5782 0.784312 36.4537 0.700014C36.3292 0.615715 36.1824 0.570626 36.032 0.570557H27.7143C27.564 0.570626 27.4172 0.615715 27.2927 0.700014C27.1682 0.784312 27.0719 0.903955 27.016 1.04352C26.5525 2.21408 25.7994 3.24779 24.8273 4.04779C23.8552 4.84779 22.6958 5.38787 21.458 5.61743C21.2852 5.64986 21.1293 5.74183 21.0173 5.87735C20.9054 6.01286 20.8445 6.18334 20.8452 6.35911V19.4926C20.8451 19.5422 20.8499 19.5917 20.8595 19.6404C22.0119 25.4021 27.2265 27.3636 31.4165 28.9388ZM31.8729 8.10949C33.186 8.10937 34.4695 8.49864 35.5614 9.22806C36.6532 9.95748 37.5041 10.9943 38.0067 12.2074C38.5092 13.4204 38.6407 14.7553 38.3846 16.0431C38.1285 17.3309 37.4962 18.5139 36.5677 19.4424C35.6392 20.3708 34.4563 21.0031 33.1685 21.2592C31.8807 21.5154 30.5458 21.3839 29.3327 20.8813C28.1196 20.3788 27.0828 19.5278 26.3534 18.436C25.624 17.3442 25.2347 16.0606 25.2348 14.7476C25.2368 12.9875 25.9369 11.3001 27.1814 10.0555C28.426 8.81094 30.1134 8.11088 31.8735 8.10892L31.8729 8.10949ZM31.8729 19.8834C32.8885 19.8834 33.8812 19.5823 34.7256 19.0181C35.57 18.4539 36.2281 17.6519 36.6168 16.7137C37.0054 15.7754 37.1071 14.743 36.909 13.747C36.7109 12.7509 36.2218 11.836 35.5037 11.1179C34.7856 10.3998 33.8707 9.91075 32.8746 9.71263C31.8786 9.5145 30.8462 9.61619 29.9079 10.0048C28.9697 10.3935 28.1677 11.0516 27.6035 11.896C27.0393 12.7404 26.7382 13.7331 26.7382 14.7487C26.74 16.11 27.2816 17.415 28.2443 18.3775C29.207 19.34 30.5122 19.8813 31.8735 19.8829L31.8729 19.8834ZM27.9055 13.9277C28.0455 13.7858 28.2362 13.7052 28.4355 13.7037C28.6349 13.7022 28.8268 13.7799 28.9689 13.9197L30.8517 15.7756L34.7723 11.855C34.8416 11.7827 34.9246 11.725 35.0165 11.6852C35.1083 11.6454 35.2072 11.6244 35.3073 11.6233C35.4074 11.6223 35.5067 11.6412 35.5994 11.6791C35.6921 11.7169 35.7763 11.7729 35.8471 11.8437C35.9179 11.9145 35.9738 11.9987 36.0116 12.0914C36.0494 12.1841 36.0682 12.2835 36.0671 12.3836C36.066 12.4837 36.045 12.5826 36.0051 12.6744C35.9653 12.7662 35.9075 12.8492 35.8352 12.9184L31.3851 17.3686C31.2448 17.5089 31.0547 17.5881 30.8562 17.5888C30.6577 17.5896 30.467 17.5118 30.3256 17.3725L27.9095 14.9935C27.839 14.9238 27.783 14.841 27.7447 14.7497C27.7064 14.6584 27.6864 14.5604 27.6861 14.4614C27.6857 14.3624 27.7049 14.2643 27.7425 14.1727C27.7802 14.0811 27.8356 13.9978 27.9055 13.9277Z" fill="#78B2C5"/>
</svg>
