<svg width="29" height="35" viewBox="0 0 29 35" fill="none" xmlns="http://www.w3.org/2000/svg">
<path d="M4.42348 8.81808C4.95719 8.40591 5.61242 8.18311 6.28691 8.18311H22.2202C22.8947 8.18311 23.5499 8.40591 24.0836 8.81808L15.0692 16.6659C14.6033 17.0679 13.9147 17.0679 13.4488 16.6659L4.42348 8.81808ZM24.8269 21.4974C25.1429 21.0042 25.31 20.432 25.31 19.8467V11.2647C25.311 10.6793 25.1429 10.1061 24.8269 9.61391L17.9942 15.5556L24.8269 21.4974ZM3.69133 9.61401C3.37535 10.1062 3.20725 10.6794 3.20826 11.2648V19.8468C3.20826 20.4321 3.37536 21.0043 3.69133 21.4975L10.5241 15.5558L3.69133 9.61401ZM17.1707 16.2718L15.7803 17.482L15.7792 17.481C14.9053 18.2334 13.613 18.2334 12.7389 17.481L11.3484 16.2708L4.42335 22.3076C4.95706 22.7188 5.61229 22.9426 6.28678 22.9416H22.2201C22.8986 22.9446 23.5579 22.7208 24.0947 22.3076L17.1707 16.2718Z" fill="#78B2C5"/>
</svg>
