<svg width="25" height="24" viewBox="0 0 25 24" fill="none" xmlns="http://www.w3.org/2000/svg">
<path fill-rule="evenodd" clip-rule="evenodd" d="M7.06805 3.25593H16.6597C16.8897 3.25593 17.0764 3.43162 17.0764 3.64811V5.648C17.0764 5.86448 16.8897 6.04018 16.6597 6.04018H7.06805C6.83777 6.04018 6.65139 5.86448 6.65139 5.648V3.64811C6.65139 3.43162 6.83777 3.25593 7.06805 3.25593ZM16.243 4.0403H7.48472V5.25581H16.243V4.0403ZM5.33083 17.1913C5.56305 17.1913 5.75222 17.3636 5.75222 17.5838C5.75222 17.8039 5.56305 17.9762 5.33083 17.9762C5.09861 17.9762 4.90944 17.8039 4.90944 17.5838C4.90944 17.3636 5.09861 17.1913 5.33083 17.1913ZM6.50666 17.1916H12.7675V17.976H6.50666V17.1916ZM5.33083 8.23904C5.56305 8.23904 5.75222 8.41134 5.75222 8.63148C5.75222 8.85163 5.56305 9.02393 5.33083 9.02393C5.09861 9.02393 4.90944 8.85163 4.90944 8.63148C4.90944 8.41134 5.09861 8.23904 5.33083 8.23904ZM6.50666 8.23956H16.4575V9.02393H6.50666V8.23956ZM5.33083 14.2073C5.56305 14.2073 5.75222 14.3796 5.75222 14.5998C5.75222 14.8199 5.56305 14.9922 5.33083 14.9922C5.09861 14.9922 4.90944 14.8199 4.90944 14.5998C4.90944 14.3796 5.09861 14.2073 5.33083 14.2073ZM6.50666 14.2076H12.7675V14.992H6.50666V14.2076ZM5.33083 11.223C5.56305 11.223 5.75222 11.3953 5.75222 11.6155C5.75222 11.8356 5.56305 12.0079 5.33083 12.0079C5.09861 12.0079 4.90944 11.8354 4.90944 11.6155C4.90944 11.3956 5.09861 11.223 5.33083 11.223ZM6.50666 11.2236H12.7675V12.0079H6.50666V11.2236ZM20.4442 17.7822C19.9853 17.7535 19.6597 17.6706 19.3214 17.4559C18.8486 17.156 18.5442 16.7283 18.103 16.0731L17.8128 16.5463C17.7719 16.6127 17.7139 16.6632 17.6467 16.6964L14.7067 18.1514C14.4264 18.2902 14.0955 18.0944 14.0972 17.8031L13.9667 14.697C13.9636 14.6202 13.9842 14.5477 14.0222 14.4858L14.8414 13.15L14.7569 13.104C14.1533 12.7758 13.9664 12.2367 14.0533 11.7245C14.0853 11.5368 14.1558 11.3533 14.2578 11.1872C14.36 11.0204 14.4933 10.8706 14.6497 10.7514C15.0764 10.4259 15.6639 10.3103 16.2694 10.6395L16.3539 10.6852L18.5325 7.13464C18.9961 6.37877 19.7253 6.09744 20.4444 6.14215V2.70268H17.7011C17.4711 2.70268 17.2844 2.52724 17.2844 2.3105V0H3.28389V21.2327H20.4442V17.7822ZM18.1172 0.493108L19.7836 1.91831H18.1172V0.493108ZM18.8142 8.23982L19.2517 7.52683C19.5592 7.02535 20.0528 6.86717 20.5183 6.93515C20.7075 6.96286 20.9033 7.03111 21.068 7.12052C21.2397 7.21386 21.3928 7.33518 21.5142 7.47689C21.8092 7.82227 21.9105 8.30283 21.6036 8.80326L21.1655 9.5173L18.8142 8.23982ZM14.8264 15.3742C15.4153 15.6942 16.0039 16.014 16.5928 16.3337L14.9019 17.1704L14.8264 15.3742ZM20.5147 10.5775C19.7311 10.1516 18.9475 9.72594 18.1636 9.30003L18.3992 8.91621L20.7503 10.1934L20.5147 10.5775ZM18.6083 11.9112L19.2836 10.8102L20.0997 11.2539L19.4242 12.3552L18.6083 11.9112ZM17.0736 11.0766L17.7489 9.97616L18.5636 10.4191L17.8883 11.5201L17.0733 11.0769L17.0736 11.0766ZM16.3767 13.9846L15.7647 14.982L14.9492 14.5388L15.5614 13.5411L16.3767 13.9846ZM17.5992 15.3292L17.3003 15.8163L16.4847 15.3732L17.0117 14.514C17.2355 14.8121 17.4286 15.0829 17.5992 15.3292ZM20.6008 12.9949L20.1442 12.746L21.4497 10.618C21.9278 10.9786 22.3089 11.4414 22.793 12.0294C23.2144 12.5408 23.7092 13.1416 24.4014 13.8481C24.4258 13.8755 24.4544 13.9001 24.4875 13.9213L24.9997 14.2465L23.1097 17.3278L22.7078 17.0703C22.6411 17.0274 22.5605 17.0023 22.4739 17.0023C22.1239 17.002 21.8228 17.006 21.5575 17.0091L20.8605 17.0117C20.5075 17.0117 20.0892 16.9976 19.7864 16.8057C19.4225 16.5748 19.1461 16.1633 18.7114 15.5151L17.3936 13.6739C17.3603 13.6298 17.3164 13.5913 17.2633 13.5623C16.5667 13.1835 15.87 12.8046 15.1733 12.4257C14.9169 12.2864 14.8369 12.06 14.8736 11.8461C14.8894 11.7522 14.9253 11.6597 14.9769 11.5755C15.028 11.4921 15.095 11.4173 15.1736 11.3572C15.35 11.2225 15.5958 11.176 15.8525 11.3156L20.1839 13.6713L20.6005 12.9942L20.6008 12.9949ZM2.31305 2.14839H0V23.5311H17.1603V22.017H2.72972C2.49972 22.017 2.31305 21.8416 2.31305 21.6249V2.14839Z" fill="#78B2C5"/>
</svg>
